# AST/ASF file generated using VICON BodyLanguage
# -----------------------------------------------
:version 1.10
:name VICON
:units
  mass 1.0
  length 0.45
  angle deg
:documentation
   .ast/.asf automatically generated from VICON data using
   VICON BodyBuilder and BodyLanguage model FoxedUp or BRILLIANT.MOD
:root
   order TX TY TZ RX RY RZ
   axis XYZ
   position 1 1 0  
   orientation 0 0 0 
:bonedata
  begin
     id 1 
     name neck
     direction 0 1 0
     length 1
     axis 0 0 0  XYZ
  end
  begin
     id 2 
     name lshoulder
     direction 1 0 0
     length 1 
     axis 0 0 0  XYZ
    dof rx ry rz
  end
  begin
     id 3
     name lelbow
     direction 1 -1 0
     length 1.4 
     axis -20 0 0  XYZ
    dof rx ry rz
  end
  begin
     id 3
     name lwrist
     direction 0 0 1
     length .5
     axis 0 0 20  XYZ
    dof rx ry rz
  end
:hierarchy
  begin
    root neck
    neck lshoulder
    lshoulder lelbow
    lelbow lwrist
  end

#!OML:ASF F:\VICON\USERDATA\INSTALL\rory3\rory3.ASF
:FULLY-SPECIFIED
:DEGREES
1
root 0 0 0 0 0 0
lshoulder 0 0 0
lelbow 0 0 0
lwrist 0 0 0
2
root .1 0 0 0 5 0
lshoulder 10 0 0
lelbow 0 0 0
lwrist 0 0 0
3
root .2 0 0 0 10 0
lshoulder 15 0 0
lelbow 0 0 0
lwrist 0 0 0
4
root .3 0 0 0 15 0
lshoulder 20 0 0
lelbow 0 0 0
lwrist 0 0 0
5
root 0 0 0 0 0 0
lshoulder 25 0 0
lelbow 0 0 0
lwrist 0 0 0
6
root 0 0 0 0 0 0
lshoulder 30 0 0
lelbow 0 0 0
lwrist 0 0 0
4
root 0 0 0 0 0 0
lshoulder 40 0 0
lelbow 0 0 0
lwrist 0 0 0
5
root 0 0 0 0 0 0
lshoulder 50 0 0
lelbow 0 0 0
lwrist 0 0 0
6
root 0 0 0 0 0 0
lshoulder 60 0 0
lelbow 0 0 0
lwrist 0 0 0
6
root 0 0 0 0 0 0
lshoulder 70 0 0
lelbow 0 0 0
lwrist 0 0 0
4
root 0 0 0 0 0 0
lshoulder 80 0 0
lelbow 0 0 0
lwrist 0 0 0
5
root 0 0 0 0 0 0
lshoulder 90 0 30
lelbow 0 0 0
lwrist 0 0 0
